<svg width="78" height="20" viewBox="0 0 78 20" fill="none" xmlns="http://www.w3.org/2000/svg">
<circle cx="10" cy="10" r="10" fill="#4BDE95"/>
<g clip-path="url(#clip0_514_189)">
<path d="M15.9621 6.39753L14.8001 5.23853C14.6461 5.08574 14.438 5 14.2211 5C14.0042 5 13.7961 5.08574 13.6421 5.23853L8.05512 10.8385L5.55512 8.32253C5.47999 8.2454 5.38985 8.1845 5.29027 8.14356C5.19068 8.10263 5.08377 8.08254 4.97612 8.08453C4.86897 8.08295 4.76263 8.10324 4.66359 8.14416C4.56455 8.18508 4.4749 8.24577 4.40012 8.32253L3.23812 9.47953C3.08557 9.63362 3 9.84169 3 10.0585C3 10.2754 3.08557 10.4834 3.23812 10.6375L6.32112 13.7225L7.47912 14.8805C7.63309 15.0333 7.84121 15.119 8.05812 15.119C8.27503 15.119 8.48315 15.0333 8.63712 14.8805L9.80012 13.7225L15.9661 7.55653C16.1187 7.40243 16.2042 7.19436 16.2042 6.97752C16.2042 6.76069 16.1187 6.55262 15.9661 6.39853L15.9621 6.39753Z" fill="white"/>
</g>
<path d="M35.7285 13.076C35.7978 13.076 35.8585 13.1042 35.9105 13.1605L36.411 13.7C36.0297 14.142 35.566 14.4865 35.02 14.7335C34.4783 14.9805 33.8218 15.104 33.0505 15.104C32.3832 15.104 31.7765 14.9892 31.2305 14.7595C30.6845 14.5255 30.2187 14.2005 29.833 13.7845C29.4473 13.3642 29.1483 12.8615 28.936 12.2765C28.7237 11.6915 28.6175 11.048 28.6175 10.346C28.6175 9.644 28.728 9.0005 28.949 8.4155C29.17 7.8305 29.4798 7.32783 29.8785 6.9075C30.2815 6.48717 30.7625 6.16217 31.3215 5.9325C31.8805 5.6985 32.498 5.5815 33.174 5.5815C33.837 5.5815 34.422 5.68767 34.929 5.9C35.436 6.11233 35.8823 6.4005 36.268 6.7645L35.852 7.343C35.826 7.38633 35.7913 7.42317 35.748 7.4535C35.709 7.4795 35.6548 7.4925 35.5855 7.4925C35.5075 7.4925 35.4122 7.45133 35.2995 7.369C35.1868 7.28233 35.0395 7.187 34.8575 7.083C34.6755 6.979 34.448 6.88583 34.175 6.8035C33.902 6.71683 33.5662 6.6735 33.1675 6.6735C32.6865 6.6735 32.2467 6.758 31.848 6.927C31.4493 7.09167 31.1048 7.33217 30.8145 7.6485C30.5285 7.96483 30.3053 8.3505 30.145 8.8055C29.9847 9.2605 29.9045 9.774 29.9045 10.346C29.9045 10.9267 29.9868 11.4445 30.1515 11.8995C30.3205 12.3545 30.548 12.7402 30.834 13.0565C31.1243 13.3685 31.4645 13.6068 31.8545 13.7715C32.2488 13.9362 32.6735 14.0185 33.1285 14.0185C33.4058 14.0185 33.655 14.0033 33.876 13.973C34.1013 13.9383 34.3072 13.8863 34.4935 13.817C34.6842 13.7477 34.8597 13.661 35.02 13.557C35.1847 13.4487 35.3472 13.3208 35.5075 13.1735C35.5812 13.1085 35.6548 13.076 35.7285 13.076ZM41.1686 12.036C40.6356 12.0533 40.1806 12.0967 39.8036 12.166C39.4309 12.231 39.1254 12.3177 38.8871 12.426C38.6531 12.5343 38.4819 12.6622 38.3736 12.8095C38.2696 12.9568 38.2176 13.1215 38.2176 13.3035C38.2176 13.4768 38.2458 13.6263 38.3021 13.752C38.3584 13.8777 38.4343 13.9817 38.5296 14.064C38.6293 14.142 38.7441 14.2005 38.8741 14.2395C39.0084 14.2742 39.1514 14.2915 39.3031 14.2915C39.5068 14.2915 39.6931 14.272 39.8621 14.233C40.0311 14.1897 40.1893 14.129 40.3366 14.051C40.4883 13.973 40.6313 13.8798 40.7656 13.7715C40.9043 13.6632 41.0386 13.5397 41.1686 13.401V12.036ZM37.4311 9.345C37.7951 8.994 38.1873 8.73183 38.6076 8.5585C39.0279 8.38517 39.4938 8.2985 40.0051 8.2985C40.3734 8.2985 40.7006 8.35917 40.9866 8.4805C41.2726 8.60183 41.5131 8.77083 41.7081 8.9875C41.9031 9.20417 42.0504 9.46633 42.1501 9.774C42.2498 10.0817 42.2996 10.4197 42.2996 10.788V15H41.7861C41.6734 15 41.5868 14.9827 41.5261 14.948C41.4654 14.909 41.4178 14.8353 41.3831 14.727L41.2531 14.103C41.0798 14.2633 40.9108 14.4063 40.7461 14.532C40.5814 14.6533 40.4081 14.7573 40.2261 14.844C40.0441 14.9263 39.8491 14.9892 39.6411 15.0325C39.4374 15.0802 39.2099 15.104 38.9586 15.104C38.7029 15.104 38.4624 15.0693 38.2371 15C38.0118 14.9263 37.8146 14.818 37.6456 14.675C37.4809 14.532 37.3488 14.3522 37.2491 14.1355C37.1538 13.9145 37.1061 13.6545 37.1061 13.3555C37.1061 13.0955 37.1776 12.8463 37.3206 12.608C37.4636 12.3653 37.6954 12.1508 38.0161 11.9645C38.3368 11.7782 38.7549 11.6265 39.2706 11.5095C39.7863 11.3882 40.4189 11.3188 41.1686 11.3015V10.788C41.1686 10.2767 41.0581 9.891 40.8371 9.631C40.6161 9.36667 40.2933 9.2345 39.8686 9.2345C39.5826 9.2345 39.3421 9.27133 39.1471 9.345C38.9564 9.41433 38.7896 9.4945 38.6466 9.5855C38.5079 9.67217 38.3866 9.75233 38.2826 9.826C38.1829 9.89533 38.0833 9.93 37.9836 9.93C37.9056 9.93 37.8384 9.9105 37.7821 9.8715C37.7258 9.82817 37.6781 9.77617 37.6391 9.7155L37.4311 9.345ZM45.1605 9.735C45.3685 9.28433 45.6242 8.93333 45.9275 8.682C46.2308 8.42633 46.6013 8.2985 47.039 8.2985C47.1777 8.2985 47.3098 8.31367 47.4355 8.344C47.5655 8.37433 47.6803 8.422 47.78 8.487L47.6955 9.3515C47.6695 9.45983 47.6045 9.514 47.5005 9.514C47.4398 9.514 47.351 9.501 47.234 9.475C47.117 9.449 46.9848 9.436 46.8375 9.436C46.6295 9.436 46.4432 9.46633 46.2785 9.527C46.1182 9.58767 45.973 9.67867 45.843 9.8C45.7173 9.917 45.6025 10.0643 45.4985 10.242C45.3988 10.4153 45.3078 10.6147 45.2255 10.84V15H44.062V8.4155H44.725C44.8507 8.4155 44.9373 8.43933 44.985 8.487C45.0327 8.53467 45.0652 8.617 45.0825 8.734L45.1605 9.735ZM49.8959 9.735C50.1039 9.28433 50.3595 8.93333 50.6629 8.682C50.9662 8.42633 51.3367 8.2985 51.7744 8.2985C51.913 8.2985 52.0452 8.31367 52.1709 8.344C52.3009 8.37433 52.4157 8.422 52.5154 8.487L52.4309 9.3515C52.4049 9.45983 52.3399 9.514 52.2359 9.514C52.1752 9.514 52.0864 9.501 51.9694 9.475C51.8524 9.449 51.7202 9.436 51.5729 9.436C51.3649 9.436 51.1785 9.46633 51.0139 9.527C50.8535 9.58767 50.7084 9.67867 50.5784 9.8C50.4527 9.917 50.3379 10.0643 50.2339 10.242C50.1342 10.4153 50.0432 10.6147 49.9609 10.84V15H48.7974V8.4155H49.4604C49.586 8.4155 49.6727 8.43933 49.7204 8.487C49.768 8.53467 49.8005 8.617 49.8179 8.734L49.8959 9.735ZM54.7547 8.4155V15H53.5977V8.4155H54.7547ZM55.0017 6.3485C55.0017 6.46117 54.9779 6.56733 54.9302 6.667C54.8869 6.76233 54.8262 6.849 54.7482 6.927C54.6745 7.00067 54.5857 7.05917 54.4817 7.1025C54.382 7.14583 54.2759 7.1675 54.1632 7.1675C54.0505 7.1675 53.9444 7.14583 53.8447 7.1025C53.7494 7.05917 53.6649 7.00067 53.5912 6.927C53.5175 6.849 53.459 6.76233 53.4157 6.667C53.3724 6.56733 53.3507 6.46117 53.3507 6.3485C53.3507 6.23583 53.3724 6.12967 53.4157 6.03C53.459 5.926 53.5175 5.83717 53.5912 5.7635C53.6649 5.6855 53.7494 5.62483 53.8447 5.5815C53.9444 5.53817 54.0505 5.5165 54.1632 5.5165C54.2759 5.5165 54.382 5.53817 54.4817 5.5815C54.5857 5.62483 54.6745 5.6855 54.7482 5.7635C54.8262 5.83717 54.8869 5.926 54.9302 6.03C54.9779 6.12967 55.0017 6.23583 55.0017 6.3485ZM57.7478 9.371C57.8908 9.21067 58.0424 9.0655 58.2028 8.9355C58.3631 8.8055 58.5321 8.695 58.7098 8.604C58.8918 8.50867 59.0824 8.43717 59.2818 8.3895C59.4854 8.3375 59.7043 8.3115 59.9383 8.3115C60.2979 8.3115 60.6143 8.37217 60.8873 8.4935C61.1646 8.6105 61.3943 8.7795 61.5763 9.0005C61.7626 9.21717 61.9034 9.47933 61.9988 9.787C62.0941 10.0947 62.1418 10.4348 62.1418 10.8075V15H60.9783V10.8075C60.9783 10.3092 60.8634 9.9235 60.6338 9.6505C60.4084 9.37317 60.0639 9.2345 59.6003 9.2345C59.2579 9.2345 58.9373 9.31683 58.6383 9.4815C58.3436 9.64617 58.0706 9.86933 57.8193 10.151V15H56.6558V8.4155H57.3513C57.5159 8.4155 57.6178 8.49567 57.6568 8.656L57.7478 9.371ZM65.0683 9.293C65.3499 8.994 65.6619 8.75567 66.0043 8.578C66.3466 8.40033 66.7409 8.3115 67.1873 8.3115C67.5469 8.3115 67.8633 8.37217 68.1363 8.4935C68.4136 8.6105 68.6433 8.7795 68.8253 9.0005C69.0116 9.21717 69.1524 9.47933 69.2478 9.787C69.3431 10.0947 69.3908 10.4348 69.3908 10.8075V15H68.2273V10.8075C68.2273 10.3092 68.1124 9.9235 67.8828 9.6505C67.6574 9.37317 67.3129 9.2345 66.8493 9.2345C66.5069 9.2345 66.1863 9.31683 65.8873 9.4815C65.5926 9.64617 65.3196 9.86933 65.0683 10.151V15H63.9048V5.4255H65.0683V9.293ZM73.9293 8.3115C74.4103 8.3115 74.8436 8.39167 75.2293 8.552C75.615 8.71233 75.9443 8.93983 76.2173 9.2345C76.4903 9.52917 76.6983 9.88667 76.8413 10.307C76.9886 10.723 77.0623 11.1888 77.0623 11.7045C77.0623 12.2245 76.9886 12.6925 76.8413 13.1085C76.6983 13.5245 76.4903 13.8798 76.2173 14.1745C75.9443 14.4692 75.615 14.6967 75.2293 14.857C74.8436 15.013 74.4103 15.091 73.9293 15.091C73.444 15.091 73.0063 15.013 72.6163 14.857C72.2306 14.6967 71.9013 14.4692 71.6283 14.1745C71.3553 13.8798 71.1451 13.5245 70.9978 13.1085C70.8548 12.6925 70.7833 12.2245 70.7833 11.7045C70.7833 11.1888 70.8548 10.723 70.9978 10.307C71.1451 9.88667 71.3553 9.52917 71.6283 9.2345C71.9013 8.93983 72.2306 8.71233 72.6163 8.552C73.0063 8.39167 73.444 8.3115 73.9293 8.3115ZM73.9293 14.1875C74.5793 14.1875 75.0646 13.9708 75.3853 13.5375C75.706 13.0998 75.8663 12.491 75.8663 11.711C75.8663 10.9267 75.706 10.3157 75.3853 9.878C75.0646 9.44033 74.5793 9.2215 73.9293 9.2215C73.6 9.2215 73.3118 9.27783 73.0648 9.3905C72.8221 9.50317 72.6185 9.66567 72.4538 9.878C72.2935 10.0903 72.1721 10.3525 72.0898 10.6645C72.0118 10.9722 71.9728 11.321 71.9728 11.711C71.9728 12.491 72.1331 13.0998 72.4538 13.5375C72.7788 13.9708 73.2706 14.1875 73.9293 14.1875Z" fill="#4BDE95"/>
<defs>
<clipPath id="clip0_514_189">
<rect width="13.2" height="10.117" fill="white" transform="translate(3 5)"/>
</clipPath>
</defs>
</svg>
