<svg width="96" height="20" viewBox="0 0 96 20" fill="none" xmlns="http://www.w3.org/2000/svg">
<circle cx="10" cy="10" r="9.35" stroke="#4BDE95" stroke-width="1.3"/>
<path d="M6.93149 8.2205C6.99649 7.76983 7.12216 7.3755 7.30849 7.0375C7.49483 6.69517 7.72666 6.41133 8.00399 6.186C8.28566 5.95633 8.60633 5.78517 8.96599 5.6725C9.32999 5.5555 9.71999 5.497 10.136 5.497C10.5693 5.497 10.9593 5.55983 11.306 5.6855C11.657 5.80683 11.956 5.978 12.203 6.199C12.45 6.41567 12.6385 6.67133 12.7685 6.966C12.9028 7.26067 12.97 7.57917 12.97 7.9215C12.97 8.2205 12.9353 8.48483 12.866 8.7145C12.801 8.93983 12.7057 9.137 12.58 9.306C12.4543 9.475 12.2983 9.618 12.112 9.735C11.9257 9.852 11.7155 9.9495 11.4815 10.0275C12.0448 10.2052 12.4652 10.476 12.7425 10.84C13.0198 11.204 13.1585 11.6612 13.1585 12.2115C13.1585 12.6795 13.0718 13.0933 12.8985 13.453C12.7252 13.8127 12.4912 14.116 12.1965 14.363C11.9018 14.6057 11.5595 14.7898 11.1695 14.9155C10.7838 15.0412 10.3743 15.104 9.94099 15.104C9.46866 15.104 9.05699 15.0498 8.70599 14.9415C8.35499 14.8332 8.04949 14.6728 7.78949 14.4605C7.52949 14.2482 7.30849 13.9882 7.12649 13.6805C6.94449 13.3728 6.78849 13.0175 6.65849 12.6145L7.36699 12.322C7.55333 12.244 7.72666 12.2245 7.88699 12.2635C8.05166 12.2982 8.17083 12.3848 8.24449 12.5235C8.32249 12.6752 8.40699 12.8247 8.49799 12.972C8.59333 13.1193 8.70599 13.2515 8.83599 13.3685C8.96599 13.4812 9.11766 13.5743 9.29099 13.648C9.46866 13.7173 9.67883 13.752 9.92149 13.752C10.1945 13.752 10.4328 13.7087 10.6365 13.622C10.8402 13.531 11.0092 13.414 11.1435 13.271C11.2822 13.128 11.384 12.9698 11.449 12.7965C11.5183 12.6188 11.553 12.4412 11.553 12.2635C11.553 12.0382 11.5292 11.8345 11.4815 11.6525C11.4338 11.4662 11.3342 11.308 11.1825 11.178C11.0308 11.048 10.812 10.9462 10.526 10.8725C10.2443 10.7988 9.86516 10.762 9.38849 10.762V9.618C9.78283 9.61367 10.11 9.57683 10.37 9.5075C10.63 9.43817 10.8358 9.34283 10.9875 9.2215C11.1435 9.09583 11.2518 8.94633 11.3125 8.773C11.3732 8.59967 11.4035 8.409 11.4035 8.201C11.4035 7.759 11.28 7.42317 11.033 7.1935C10.786 6.96383 10.4567 6.849 10.045 6.849C9.85433 6.849 9.67883 6.87717 9.51849 6.9335C9.35816 6.9855 9.21299 7.06133 9.08299 7.161C8.95733 7.25633 8.85116 7.369 8.76449 7.499C8.67783 7.629 8.61283 7.772 8.56949 7.928C8.49583 8.12733 8.39833 8.2595 8.27699 8.3245C8.15999 8.3895 7.99316 8.40467 7.77649 8.37L6.93149 8.2205Z" fill="#4BDE95"/>
<path d="M35.7285 13.076C35.7978 13.076 35.8585 13.1042 35.9105 13.1605L36.411 13.7C36.0297 14.142 35.566 14.4865 35.02 14.7335C34.4783 14.9805 33.8218 15.104 33.0505 15.104C32.3832 15.104 31.7765 14.9892 31.2305 14.7595C30.6845 14.5255 30.2187 14.2005 29.833 13.7845C29.4473 13.3642 29.1483 12.8615 28.936 12.2765C28.7237 11.6915 28.6175 11.048 28.6175 10.346C28.6175 9.644 28.728 9.0005 28.949 8.4155C29.17 7.8305 29.4798 7.32783 29.8785 6.9075C30.2815 6.48717 30.7625 6.16217 31.3215 5.9325C31.8805 5.6985 32.498 5.5815 33.174 5.5815C33.837 5.5815 34.422 5.68767 34.929 5.9C35.436 6.11233 35.8823 6.4005 36.268 6.7645L35.852 7.343C35.826 7.38633 35.7913 7.42317 35.748 7.4535C35.709 7.4795 35.6548 7.4925 35.5855 7.4925C35.5075 7.4925 35.4122 7.45133 35.2995 7.369C35.1868 7.28233 35.0395 7.187 34.8575 7.083C34.6755 6.979 34.448 6.88583 34.175 6.8035C33.902 6.71683 33.5662 6.6735 33.1675 6.6735C32.6865 6.6735 32.2467 6.758 31.848 6.927C31.4493 7.09167 31.1048 7.33217 30.8145 7.6485C30.5285 7.96483 30.3053 8.3505 30.145 8.8055C29.9847 9.2605 29.9045 9.774 29.9045 10.346C29.9045 10.9267 29.9868 11.4445 30.1515 11.8995C30.3205 12.3545 30.548 12.7402 30.834 13.0565C31.1243 13.3685 31.4645 13.6068 31.8545 13.7715C32.2488 13.9362 32.6735 14.0185 33.1285 14.0185C33.4058 14.0185 33.655 14.0033 33.876 13.973C34.1013 13.9383 34.3072 13.8863 34.4935 13.817C34.6842 13.7477 34.8597 13.661 35.02 13.557C35.1847 13.4487 35.3472 13.3208 35.5075 13.1735C35.5812 13.1085 35.6548 13.076 35.7285 13.076ZM40.2486 8.3115C40.7296 8.3115 41.163 8.39167 41.5486 8.552C41.9343 8.71233 42.2636 8.93983 42.5366 9.2345C42.8096 9.52917 43.0176 9.88667 43.1606 10.307C43.308 10.723 43.3816 11.1888 43.3816 11.7045C43.3816 12.2245 43.308 12.6925 43.1606 13.1085C43.0176 13.5245 42.8096 13.8798 42.5366 14.1745C42.2636 14.4692 41.9343 14.6967 41.5486 14.857C41.163 15.013 40.7296 15.091 40.2486 15.091C39.7633 15.091 39.3256 15.013 38.9356 14.857C38.55 14.6967 38.2206 14.4692 37.9476 14.1745C37.6746 13.8798 37.4645 13.5245 37.3171 13.1085C37.1741 12.6925 37.1026 12.2245 37.1026 11.7045C37.1026 11.1888 37.1741 10.723 37.3171 10.307C37.4645 9.88667 37.6746 9.52917 37.9476 9.2345C38.2206 8.93983 38.55 8.71233 38.9356 8.552C39.3256 8.39167 39.7633 8.3115 40.2486 8.3115ZM40.2486 14.1875C40.8986 14.1875 41.384 13.9708 41.7046 13.5375C42.0253 13.0998 42.1856 12.491 42.1856 11.711C42.1856 10.9267 42.0253 10.3157 41.7046 9.878C41.384 9.44033 40.8986 9.2215 40.2486 9.2215C39.9193 9.2215 39.6311 9.27783 39.3841 9.3905C39.1415 9.50317 38.9378 9.66567 38.7731 9.878C38.6128 10.0903 38.4915 10.3525 38.4091 10.6645C38.3311 10.9722 38.2921 11.321 38.2921 11.711C38.2921 12.491 38.4525 13.0998 38.7731 13.5375C39.0981 13.9708 39.59 14.1875 40.2486 14.1875ZM45.9411 9.371C46.0841 9.21067 46.2358 9.0655 46.3961 8.9355C46.5565 8.8055 46.7255 8.695 46.9031 8.604C47.0851 8.50867 47.2758 8.43717 47.4751 8.3895C47.6788 8.3375 47.8976 8.3115 48.1316 8.3115C48.4913 8.3115 48.8076 8.37217 49.0806 8.4935C49.358 8.6105 49.5876 8.7795 49.7696 9.0005C49.956 9.21717 50.0968 9.47933 50.1921 9.787C50.2875 10.0947 50.3351 10.4348 50.3351 10.8075V15H49.1716V10.8075C49.1716 10.3092 49.0568 9.9235 48.8271 9.6505C48.6018 9.37317 48.2573 9.2345 47.7936 9.2345C47.4513 9.2345 47.1306 9.31683 46.8316 9.4815C46.537 9.64617 46.264 9.86933 46.0126 10.151V15H44.8491V8.4155H45.5446C45.7093 8.4155 45.8111 8.49567 45.8501 8.656L45.9411 9.371ZM52.4386 15V9.4035L51.7106 9.319C51.6152 9.29733 51.5394 9.26483 51.4831 9.2215C51.4267 9.17383 51.3986 9.10667 51.3986 9.02V8.5455H52.4386V8.1815C52.4386 7.7785 52.5014 7.41017 52.6271 7.0765C52.7527 6.7385 52.9412 6.44817 53.1926 6.2055C53.4439 5.96283 53.7559 5.77433 54.1286 5.64C54.5056 5.50567 54.9411 5.4385 55.4351 5.4385C55.5997 5.4385 55.7687 5.44933 55.9421 5.471C56.1154 5.49267 56.2649 5.52517 56.3906 5.5685L56.3451 6.173C56.3407 6.21633 56.3234 6.24667 56.2931 6.264C56.2671 6.28133 56.2302 6.29217 56.1826 6.2965C56.1349 6.30083 56.0742 6.303 56.0006 6.303C55.9312 6.29867 55.8511 6.2965 55.7601 6.2965C54.9887 6.2965 54.4297 6.45683 54.0831 6.7775C53.7364 7.09383 53.5631 7.57267 53.5631 8.214V8.5455H57.5411V15H56.3776V9.384H53.5956V15H52.4386ZM59.436 15V8.4155H60.1315C60.2962 8.4155 60.398 8.49567 60.437 8.656L60.5215 9.332C60.7642 9.033 61.0372 8.78817 61.3405 8.5975C61.6439 8.40683 61.9949 8.3115 62.3935 8.3115C62.8355 8.3115 63.193 8.435 63.466 8.682C63.7434 8.929 63.9427 9.26267 64.064 9.683C64.1594 9.44467 64.2807 9.23883 64.428 9.0655C64.5797 8.89217 64.7487 8.74917 64.935 8.6365C65.1214 8.52383 65.3185 8.4415 65.5265 8.3895C65.7389 8.3375 65.9534 8.3115 66.17 8.3115C66.5167 8.3115 66.8244 8.36783 67.093 8.4805C67.366 8.58883 67.5957 8.74917 67.782 8.9615C67.9727 9.17383 68.1179 9.436 68.2175 9.748C68.3172 10.0557 68.367 10.4088 68.367 10.8075V15H67.2035V10.8075C67.2035 10.2918 67.0909 9.90183 66.8655 9.6375C66.6402 9.36883 66.3152 9.2345 65.8905 9.2345C65.6999 9.2345 65.5179 9.26917 65.3445 9.3385C65.1755 9.4035 65.026 9.501 64.896 9.631C64.766 9.761 64.662 9.92567 64.584 10.125C64.5104 10.32 64.4735 10.5475 64.4735 10.8075V15H63.31V10.8075C63.31 10.2788 63.2039 9.8845 62.9915 9.6245C62.7792 9.3645 62.4694 9.2345 62.062 9.2345C61.776 9.2345 61.5117 9.3125 61.269 9.4685C61.0264 9.62017 60.8032 9.82817 60.5995 10.0925V15H59.436ZM73.694 12.036C73.161 12.0533 72.706 12.0967 72.329 12.166C71.9563 12.231 71.6508 12.3177 71.4125 12.426C71.1785 12.5343 71.0073 12.6622 70.899 12.8095C70.795 12.9568 70.743 13.1215 70.743 13.3035C70.743 13.4768 70.7712 13.6263 70.8275 13.752C70.8838 13.8777 70.9597 13.9817 71.055 14.064C71.1547 14.142 71.2695 14.2005 71.3995 14.2395C71.5338 14.2742 71.6768 14.2915 71.8285 14.2915C72.0322 14.2915 72.2185 14.272 72.3875 14.233C72.5565 14.1897 72.7147 14.129 72.862 14.051C73.0137 13.973 73.1567 13.8798 73.291 13.7715C73.4297 13.6632 73.564 13.5397 73.694 13.401V12.036ZM69.9565 9.345C70.3205 8.994 70.7127 8.73183 71.133 8.5585C71.5533 8.38517 72.0192 8.2985 72.5305 8.2985C72.8988 8.2985 73.226 8.35917 73.512 8.4805C73.798 8.60183 74.0385 8.77083 74.2335 8.9875C74.4285 9.20417 74.5758 9.46633 74.6755 9.774C74.7752 10.0817 74.825 10.4197 74.825 10.788V15H74.3115C74.1988 15 74.1122 14.9827 74.0515 14.948C73.9908 14.909 73.9432 14.8353 73.9085 14.727L73.7785 14.103C73.6052 14.2633 73.4362 14.4063 73.2715 14.532C73.1068 14.6533 72.9335 14.7573 72.7515 14.844C72.5695 14.9263 72.3745 14.9892 72.1665 15.0325C71.9628 15.0802 71.7353 15.104 71.484 15.104C71.2283 15.104 70.9878 15.0693 70.7625 15C70.5372 14.9263 70.34 14.818 70.171 14.675C70.0063 14.532 69.8742 14.3522 69.7745 14.1355C69.6792 13.9145 69.6315 13.6545 69.6315 13.3555C69.6315 13.0955 69.703 12.8463 69.846 12.608C69.989 12.3653 70.2208 12.1508 70.5415 11.9645C70.8622 11.7782 71.2803 11.6265 71.796 11.5095C72.3117 11.3882 72.9443 11.3188 73.694 11.3015V10.788C73.694 10.2767 73.5835 9.891 73.3625 9.631C73.1415 9.36667 72.8187 9.2345 72.394 9.2345C72.108 9.2345 71.8675 9.27133 71.6725 9.345C71.4818 9.41433 71.315 9.4945 71.172 9.5855C71.0333 9.67217 70.912 9.75233 70.808 9.826C70.7083 9.89533 70.6087 9.93 70.509 9.93C70.431 9.93 70.3638 9.9105 70.3075 9.8715C70.2512 9.82817 70.2035 9.77617 70.1645 9.7155L69.9565 9.345ZM81.5534 14.077C81.3064 14.3847 81.0031 14.6187 80.6434 14.779C80.2837 14.9393 79.9002 15.0368 79.4929 15.0715L79.3759 15.4875C79.7789 15.5698 80.0692 15.6868 80.2469 15.8385C80.4246 15.9902 80.5134 16.183 80.5134 16.417C80.5134 16.5557 80.4787 16.6813 80.4094 16.794C80.3401 16.9067 80.2426 17.002 80.1169 17.08C79.9956 17.158 79.8482 17.2165 79.6749 17.2555C79.5059 17.2988 79.3174 17.3205 79.1094 17.3205C78.9317 17.3205 78.7606 17.301 78.5959 17.262C78.4356 17.2273 78.2904 17.1797 78.1604 17.119L78.2644 16.7615C78.2904 16.6835 78.3402 16.6445 78.4139 16.6445C78.4399 16.6445 78.4702 16.651 78.5049 16.664C78.5396 16.6813 78.5807 16.6987 78.6284 16.716C78.6804 16.7377 78.7389 16.755 78.8039 16.768C78.8732 16.7853 78.9556 16.794 79.0509 16.794C79.2329 16.794 79.3694 16.7572 79.4604 16.6835C79.5514 16.6098 79.5969 16.5167 79.5969 16.404C79.5969 16.2393 79.5059 16.1223 79.3239 16.053C79.1419 15.988 78.8862 15.9338 78.5569 15.8905L78.8234 15.078C78.4464 15.0433 78.0976 14.9437 77.7769 14.779C77.4606 14.61 77.1854 14.3825 76.9514 14.0965C76.7217 13.8062 76.5419 13.4617 76.4119 13.063C76.2819 12.66 76.2169 12.2072 76.2169 11.7045C76.2169 11.2148 76.2841 10.762 76.4184 10.346C76.5571 9.93 76.7564 9.5725 77.0164 9.2735C77.2807 8.97017 77.6036 8.734 77.9849 8.565C78.3706 8.396 78.8126 8.3115 79.3109 8.3115C79.7746 8.3115 80.1819 8.38733 80.5329 8.539C80.8882 8.68633 81.2024 8.8965 81.4754 9.1695L81.1699 9.5855C81.1352 9.63317 81.1006 9.67 81.0659 9.696C81.0312 9.722 80.9836 9.735 80.9229 9.735C80.8579 9.735 80.7864 9.709 80.7084 9.657C80.6304 9.60067 80.5329 9.54 80.4159 9.475C80.3032 9.41 80.1624 9.3515 79.9934 9.2995C79.8287 9.24317 79.6251 9.215 79.3824 9.215C79.0574 9.215 78.7714 9.2735 78.5244 9.3905C78.2774 9.50317 78.0694 9.66783 77.9004 9.8845C77.7357 10.1012 77.6101 10.3633 77.5234 10.671C77.4411 10.9787 77.3999 11.3232 77.3999 11.7045C77.3999 12.1032 77.4454 12.4585 77.5364 12.7705C77.6274 13.0782 77.7552 13.3382 77.9199 13.5505C78.0889 13.7585 78.2904 13.9188 78.5244 14.0315C78.7627 14.1398 79.0292 14.194 79.3239 14.194C79.6056 14.194 79.8374 14.1615 80.0194 14.0965C80.2014 14.0272 80.3509 13.9513 80.4679 13.869C80.5892 13.7867 80.6889 13.713 80.7669 13.648C80.8492 13.5787 80.9294 13.544 81.0074 13.544C81.1027 13.544 81.1764 13.5808 81.2284 13.6545L81.5534 14.077ZM86.3639 12.036C85.8309 12.0533 85.3759 12.0967 84.9989 12.166C84.6262 12.231 84.3207 12.3177 84.0824 12.426C83.8484 12.5343 83.6772 12.6622 83.5689 12.8095C83.4649 12.9568 83.4129 13.1215 83.4129 13.3035C83.4129 13.4768 83.4411 13.6263 83.4974 13.752C83.5537 13.8777 83.6296 13.9817 83.7249 14.064C83.8246 14.142 83.9394 14.2005 84.0694 14.2395C84.2037 14.2742 84.3467 14.2915 84.4984 14.2915C84.7021 14.2915 84.8884 14.272 85.0574 14.233C85.2264 14.1897 85.3846 14.129 85.5319 14.051C85.6836 13.973 85.8266 13.8798 85.9609 13.7715C86.0996 13.6632 86.2339 13.5397 86.3639 13.401V12.036ZM82.6264 9.345C82.9904 8.994 83.3826 8.73183 83.8029 8.5585C84.2232 8.38517 84.6891 8.2985 85.2004 8.2985C85.5687 8.2985 85.8959 8.35917 86.1819 8.4805C86.4679 8.60183 86.7084 8.77083 86.9034 8.9875C87.0984 9.20417 87.2457 9.46633 87.3454 9.774C87.4451 10.0817 87.4949 10.4197 87.4949 10.788V15H86.9814C86.8687 15 86.7821 14.9827 86.7214 14.948C86.6607 14.909 86.6131 14.8353 86.5784 14.727L86.4484 14.103C86.2751 14.2633 86.1061 14.4063 85.9414 14.532C85.7767 14.6533 85.6034 14.7573 85.4214 14.844C85.2394 14.9263 85.0444 14.9892 84.8364 15.0325C84.6327 15.0802 84.4052 15.104 84.1539 15.104C83.8982 15.104 83.6577 15.0693 83.4324 15C83.2071 14.9263 83.0099 14.818 82.8409 14.675C82.6762 14.532 82.5441 14.3522 82.4444 14.1355C82.3491 13.9145 82.3014 13.6545 82.3014 13.3555C82.3014 13.0955 82.3729 12.8463 82.5159 12.608C82.6589 12.3653 82.8907 12.1508 83.2114 11.9645C83.5321 11.7782 83.9502 11.6265 84.4659 11.5095C84.9816 11.3882 85.6142 11.3188 86.3639 11.3015V10.788C86.3639 10.2767 86.2534 9.891 86.0324 9.631C85.8114 9.36667 85.4886 9.2345 85.0639 9.2345C84.7779 9.2345 84.5374 9.27133 84.3424 9.345C84.1517 9.41433 83.9849 9.4945 83.8419 9.5855C83.7032 9.67217 83.5819 9.75233 83.4779 9.826C83.3782 9.89533 83.2786 9.93 83.1789 9.93C83.1009 9.93 83.0337 9.9105 82.9774 9.8715C82.9211 9.82817 82.8734 9.77617 82.8344 9.7155L82.6264 9.345ZM85.7724 6.3875C85.9284 6.3875 86.0476 6.342 86.1299 6.251C86.2166 6.16 86.2621 6.01917 86.2664 5.8285H86.9684C86.9684 6.03217 86.9402 6.22067 86.8839 6.394C86.8319 6.563 86.7539 6.70817 86.6499 6.8295C86.5502 6.95083 86.4289 7.04617 86.2859 7.1155C86.1472 7.1805 85.9912 7.213 85.8179 7.213C85.6662 7.213 85.5232 7.18267 85.3889 7.122C85.2589 7.057 85.1354 6.98767 85.0184 6.914C84.9014 6.84033 84.7909 6.77317 84.6869 6.7125C84.5829 6.6475 84.4811 6.615 84.3814 6.615C84.0694 6.615 83.9091 6.80567 83.9004 7.187H83.1789C83.1789 6.979 83.2071 6.7905 83.2634 6.6215C83.3197 6.44817 83.3999 6.30083 83.5039 6.1795C83.6079 6.05383 83.7314 5.9585 83.8744 5.8935C84.0174 5.82417 84.1734 5.7895 84.3424 5.7895C84.4941 5.7895 84.6349 5.822 84.7649 5.887C84.8992 5.94767 85.0249 6.01483 85.1419 6.0885C85.2589 6.16217 85.3672 6.2315 85.4669 6.2965C85.5709 6.35717 85.6727 6.3875 85.7724 6.3875ZM92.0328 8.3115C92.5138 8.3115 92.9472 8.39167 93.3328 8.552C93.7185 8.71233 94.0478 8.93983 94.3208 9.2345C94.5938 9.52917 94.8018 9.88667 94.9448 10.307C95.0922 10.723 95.1658 11.1888 95.1658 11.7045C95.1658 12.2245 95.0922 12.6925 94.9448 13.1085C94.8018 13.5245 94.5938 13.8798 94.3208 14.1745C94.0478 14.4692 93.7185 14.6967 93.3328 14.857C92.9472 15.013 92.5138 15.091 92.0328 15.091C91.5475 15.091 91.1098 15.013 90.7198 14.857C90.3342 14.6967 90.0048 14.4692 89.7318 14.1745C89.4588 13.8798 89.2487 13.5245 89.1013 13.1085C88.9583 12.6925 88.8868 12.2245 88.8868 11.7045C88.8868 11.1888 88.9583 10.723 89.1013 10.307C89.2487 9.88667 89.4588 9.52917 89.7318 9.2345C90.0048 8.93983 90.3342 8.71233 90.7198 8.552C91.1098 8.39167 91.5475 8.3115 92.0328 8.3115ZM92.0328 14.1875C92.6828 14.1875 93.1682 13.9708 93.4888 13.5375C93.8095 13.0998 93.9698 12.491 93.9698 11.711C93.9698 10.9267 93.8095 10.3157 93.4888 9.878C93.1682 9.44033 92.6828 9.2215 92.0328 9.2215C91.7035 9.2215 91.4153 9.27783 91.1683 9.3905C90.9257 9.50317 90.722 9.66567 90.5573 9.878C90.397 10.0903 90.2757 10.3525 90.1933 10.6645C90.1153 10.9722 90.0763 11.321 90.0763 11.711C90.0763 12.491 90.2367 13.0998 90.5573 13.5375C90.8823 13.9708 91.3742 14.1875 92.0328 14.1875Z" fill="#4BDE95"/>
</svg>
