<svg width="92" height="20" viewBox="0 0 92 20" fill="none" xmlns="http://www.w3.org/2000/svg">
<circle cx="10" cy="10" r="9.35" stroke="#4BDE95" stroke-width="1.3"/>
<path d="M31.939 10.515C32.2987 10.515 32.615 10.4673 32.888 10.372C33.1653 10.2767 33.3972 10.1445 33.5835 9.9755C33.7742 9.80217 33.9172 9.59633 34.0125 9.358C34.1078 9.11967 34.1555 8.8575 34.1555 8.5715C34.1555 7.97783 33.9713 7.51417 33.603 7.1805C33.239 6.84683 32.6843 6.68 31.939 6.68H30.444V10.515H31.939ZM31.939 5.6855C32.5283 5.6855 33.0397 5.75483 33.473 5.8935C33.9107 6.02783 34.2725 6.22067 34.5585 6.472C34.8445 6.72333 35.0568 7.02667 35.1955 7.382C35.3385 7.73733 35.41 8.13383 35.41 8.5715C35.41 9.00483 35.3342 9.40133 35.1825 9.761C35.0308 10.1207 34.8077 10.4305 34.513 10.6905C34.2227 10.9505 33.8608 11.1542 33.4275 11.3015C32.9985 11.4445 32.5023 11.516 31.939 11.516H30.444V15H29.1895V5.6855H31.939ZM40.0895 12.036C39.5565 12.0533 39.1015 12.0967 38.7245 12.166C38.3518 12.231 38.0463 12.3177 37.808 12.426C37.574 12.5343 37.4028 12.6622 37.2945 12.8095C37.1905 12.9568 37.1385 13.1215 37.1385 13.3035C37.1385 13.4768 37.1667 13.6263 37.223 13.752C37.2793 13.8777 37.3552 13.9817 37.4505 14.064C37.5502 14.142 37.665 14.2005 37.795 14.2395C37.9293 14.2742 38.0723 14.2915 38.224 14.2915C38.4277 14.2915 38.614 14.272 38.783 14.233C38.952 14.1897 39.1102 14.129 39.2575 14.051C39.4092 13.973 39.5522 13.8798 39.6865 13.7715C39.8252 13.6632 39.9595 13.5397 40.0895 13.401V12.036ZM36.352 9.345C36.716 8.994 37.1082 8.73183 37.5285 8.5585C37.9488 8.38517 38.4147 8.2985 38.926 8.2985C39.2943 8.2985 39.6215 8.35917 39.9075 8.4805C40.1935 8.60183 40.434 8.77083 40.629 8.9875C40.824 9.20417 40.9713 9.46633 41.071 9.774C41.1707 10.0817 41.2205 10.4197 41.2205 10.788V15H40.707C40.5943 15 40.5077 14.9827 40.447 14.948C40.3863 14.909 40.3387 14.8353 40.304 14.727L40.174 14.103C40.0007 14.2633 39.8317 14.4063 39.667 14.532C39.5023 14.6533 39.329 14.7573 39.147 14.844C38.965 14.9263 38.77 14.9892 38.562 15.0325C38.3583 15.0802 38.1308 15.104 37.8795 15.104C37.6238 15.104 37.3833 15.0693 37.158 15C36.9327 14.9263 36.7355 14.818 36.5665 14.675C36.4018 14.532 36.2697 14.3522 36.17 14.1355C36.0747 13.9145 36.027 13.6545 36.027 13.3555C36.027 13.0955 36.0985 12.8463 36.2415 12.608C36.3845 12.3653 36.6163 12.1508 36.937 11.9645C37.2577 11.7782 37.6758 11.6265 38.1915 11.5095C38.7072 11.3882 39.3398 11.3188 40.0895 11.3015V10.788C40.0895 10.2767 39.979 9.891 39.758 9.631C39.537 9.36667 39.2142 9.2345 38.7895 9.2345C38.5035 9.2345 38.263 9.27133 38.068 9.345C37.8773 9.41433 37.7105 9.4945 37.5675 9.5855C37.4288 9.67217 37.3075 9.75233 37.2035 9.826C37.1038 9.89533 37.0042 9.93 36.9045 9.93C36.8265 9.93 36.7593 9.9105 36.703 9.8715C36.6467 9.82817 36.599 9.77617 36.56 9.7155L36.352 9.345ZM45.2774 11.7825C45.5114 11.7825 45.7172 11.75 45.8949 11.685C46.0726 11.62 46.2221 11.529 46.3434 11.412C46.4647 11.295 46.5557 11.1563 46.6164 10.996C46.6771 10.8313 46.7074 10.6515 46.7074 10.4565C46.7074 10.0535 46.5839 9.73283 46.3369 9.4945C46.0942 9.25617 45.7411 9.137 45.2774 9.137C44.8094 9.137 44.4519 9.25617 44.2049 9.4945C43.9622 9.73283 43.8409 10.0535 43.8409 10.4565C43.8409 10.6515 43.8712 10.8313 43.9319 10.996C43.9969 11.1563 44.0901 11.295 44.2114 11.412C44.3327 11.529 44.4822 11.62 44.6599 11.685C44.8376 11.75 45.0434 11.7825 45.2774 11.7825ZM47.3639 15.3575C47.3639 15.1972 47.3184 15.0672 47.2274 14.9675C47.1364 14.8678 47.0129 14.7898 46.8569 14.7335C46.7052 14.6772 46.5276 14.6382 46.3239 14.6165C46.1202 14.5905 45.9036 14.571 45.6739 14.558C45.4486 14.545 45.2189 14.532 44.9849 14.519C44.7509 14.506 44.5256 14.4843 44.3089 14.454C44.0662 14.5667 43.8669 14.7097 43.7109 14.883C43.5592 15.052 43.4834 15.2513 43.4834 15.481C43.4834 15.6283 43.5202 15.7648 43.5939 15.8905C43.6719 16.0205 43.7889 16.131 43.9449 16.222C44.1009 16.3173 44.2959 16.391 44.5299 16.443C44.7682 16.4993 45.0477 16.5275 45.3684 16.5275C45.6804 16.5275 45.9599 16.4993 46.2069 16.443C46.4539 16.3867 46.6619 16.3065 46.8309 16.2025C47.0042 16.0985 47.1364 15.975 47.2274 15.832C47.3184 15.689 47.3639 15.5308 47.3639 15.3575ZM48.5404 8.6755V9.1045C48.5404 9.2475 48.4494 9.3385 48.2674 9.3775L47.5199 9.475C47.6672 9.761 47.7409 10.0773 47.7409 10.424C47.7409 10.7447 47.6781 11.0372 47.5524 11.3015C47.4311 11.5615 47.2621 11.7847 47.0454 11.971C46.8287 12.1573 46.5687 12.3003 46.2654 12.4C45.9621 12.4997 45.6327 12.5495 45.2774 12.5495C44.9697 12.5495 44.6794 12.5127 44.4064 12.439C44.2677 12.5257 44.1616 12.6188 44.0879 12.7185C44.0142 12.8138 43.9774 12.9113 43.9774 13.011C43.9774 13.167 44.0402 13.2862 44.1659 13.3685C44.2959 13.4465 44.4649 13.5028 44.6729 13.5375C44.8809 13.5722 45.1171 13.5938 45.3814 13.6025C45.6501 13.6112 45.9231 13.6263 46.2004 13.648C46.4821 13.6653 46.7551 13.6978 47.0194 13.7455C47.2881 13.7932 47.5264 13.8712 47.7344 13.9795C47.9424 14.0878 48.1092 14.2373 48.2349 14.428C48.3649 14.6187 48.4299 14.8657 48.4299 15.169C48.4299 15.4507 48.3584 15.7237 48.2154 15.988C48.0767 16.2523 47.8752 16.4863 47.6109 16.69C47.3466 16.898 47.0216 17.0627 46.6359 17.184C46.2546 17.3097 45.8234 17.3725 45.3424 17.3725C44.8614 17.3725 44.4411 17.3248 44.0814 17.2295C43.7217 17.1342 43.4227 17.0063 43.1844 16.846C42.9461 16.6857 42.7662 16.4993 42.6449 16.287C42.5279 16.079 42.4694 15.8602 42.4694 15.6305C42.4694 15.3055 42.5712 15.0303 42.7749 14.805C42.9786 14.5797 43.2581 14.3998 43.6134 14.2655C43.4184 14.1788 43.2624 14.064 43.1454 13.921C43.0327 13.7737 42.9764 13.5765 42.9764 13.3295C42.9764 13.2342 42.9937 13.1367 43.0284 13.037C43.0631 12.933 43.1151 12.8312 43.1844 12.7315C43.2581 12.6275 43.3469 12.53 43.4509 12.439C43.5549 12.348 43.6762 12.2678 43.8149 12.1985C43.4899 12.0165 43.2364 11.776 43.0544 11.477C42.8724 11.1737 42.7814 10.8227 42.7814 10.424C42.7814 10.1033 42.8421 9.813 42.9634 9.553C43.0891 9.28867 43.2624 9.0655 43.4834 8.8835C43.7044 8.69717 43.9666 8.55417 44.2699 8.4545C44.5776 8.35483 44.9134 8.305 45.2774 8.305C45.5634 8.305 45.8299 8.3375 46.0769 8.4025C46.3239 8.46317 46.5492 8.55417 46.7529 8.6755H48.5404ZM53.3053 12.036C52.7723 12.0533 52.3173 12.0967 51.9403 12.166C51.5676 12.231 51.2621 12.3177 51.0238 12.426C50.7898 12.5343 50.6186 12.6622 50.5103 12.8095C50.4063 12.9568 50.3543 13.1215 50.3543 13.3035C50.3543 13.4768 50.3825 13.6263 50.4388 13.752C50.4951 13.8777 50.571 13.9817 50.6663 14.064C50.766 14.142 50.8808 14.2005 51.0108 14.2395C51.1451 14.2742 51.2881 14.2915 51.4398 14.2915C51.6435 14.2915 51.8298 14.272 51.9988 14.233C52.1678 14.1897 52.326 14.129 52.4733 14.051C52.625 13.973 52.768 13.8798 52.9023 13.7715C53.041 13.6632 53.1753 13.5397 53.3053 13.401V12.036ZM49.5678 9.345C49.9318 8.994 50.324 8.73183 50.7443 8.5585C51.1646 8.38517 51.6305 8.2985 52.1418 8.2985C52.5101 8.2985 52.8373 8.35917 53.1233 8.4805C53.4093 8.60183 53.6498 8.77083 53.8448 8.9875C54.0398 9.20417 54.1871 9.46633 54.2868 9.774C54.3865 10.0817 54.4363 10.4197 54.4363 10.788V15H53.9228C53.8101 15 53.7235 14.9827 53.6628 14.948C53.6021 14.909 53.5545 14.8353 53.5198 14.727L53.3898 14.103C53.2165 14.2633 53.0475 14.4063 52.8828 14.532C52.7181 14.6533 52.5448 14.7573 52.3628 14.844C52.1808 14.9263 51.9858 14.9892 51.7778 15.0325C51.5741 15.0802 51.3466 15.104 51.0953 15.104C50.8396 15.104 50.5991 15.0693 50.3738 15C50.1485 14.9263 49.9513 14.818 49.7823 14.675C49.6176 14.532 49.4855 14.3522 49.3858 14.1355C49.2905 13.9145 49.2428 13.6545 49.2428 13.3555C49.2428 13.0955 49.3143 12.8463 49.4573 12.608C49.6003 12.3653 49.8321 12.1508 50.1528 11.9645C50.4735 11.7782 50.8916 11.6265 51.4073 11.5095C51.923 11.3882 52.5556 11.3188 53.3053 11.3015V10.788C53.3053 10.2767 53.1948 9.891 52.9738 9.631C52.7528 9.36667 52.43 9.2345 52.0053 9.2345C51.7193 9.2345 51.4788 9.27133 51.2838 9.345C51.0931 9.41433 50.9263 9.4945 50.7833 9.5855C50.6446 9.67217 50.5233 9.75233 50.4193 9.826C50.3196 9.89533 50.22 9.93 50.1203 9.93C50.0423 9.93 49.9751 9.9105 49.9188 9.8715C49.8625 9.82817 49.8148 9.77617 49.7758 9.7155L49.5678 9.345ZM56.1987 15V8.4155H56.8942C57.0589 8.4155 57.1607 8.49567 57.1997 8.656L57.2842 9.332C57.5269 9.033 57.7999 8.78817 58.1032 8.5975C58.4066 8.40683 58.7576 8.3115 59.1562 8.3115C59.5982 8.3115 59.9557 8.435 60.2287 8.682C60.5061 8.929 60.7054 9.26267 60.8267 9.683C60.9221 9.44467 61.0434 9.23883 61.1907 9.0655C61.3424 8.89217 61.5114 8.74917 61.6977 8.6365C61.8841 8.52383 62.0812 8.4415 62.2892 8.3895C62.5016 8.3375 62.7161 8.3115 62.9327 8.3115C63.2794 8.3115 63.5871 8.36783 63.8557 8.4805C64.1287 8.58883 64.3584 8.74917 64.5447 8.9615C64.7354 9.17383 64.8806 9.436 64.9802 9.748C65.0799 10.0557 65.1297 10.4088 65.1297 10.8075V15H63.9662V10.8075C63.9662 10.2918 63.8536 9.90183 63.6282 9.6375C63.4029 9.36883 63.0779 9.2345 62.6532 9.2345C62.4626 9.2345 62.2806 9.26917 62.1072 9.3385C61.9382 9.4035 61.7887 9.501 61.6587 9.631C61.5287 9.761 61.4247 9.92567 61.3467 10.125C61.2731 10.32 61.2362 10.5475 61.2362 10.8075V15H60.0727V10.8075C60.0727 10.2788 59.9666 9.8845 59.7542 9.6245C59.5419 9.3645 59.2321 9.2345 58.8247 9.2345C58.5387 9.2345 58.2744 9.3125 58.0317 9.4685C57.7891 9.62017 57.5659 9.82817 57.3622 10.0925V15H56.1987ZM71.2952 10.9895C71.2952 10.7208 71.2562 10.476 71.1782 10.255C71.1045 10.0297 70.994 9.83683 70.8467 9.6765C70.7037 9.51183 70.5282 9.38617 70.3202 9.2995C70.1122 9.2085 69.876 9.163 69.6117 9.163C69.057 9.163 68.6172 9.3255 68.2922 9.6505C67.9715 9.97117 67.7722 10.4175 67.6942 10.9895H71.2952ZM72.2312 14.077C72.0882 14.2503 71.917 14.402 71.7177 14.532C71.5183 14.6577 71.3038 14.7617 71.0742 14.844C70.8488 14.9263 70.6148 14.987 70.3722 15.026C70.1295 15.0693 69.889 15.091 69.6507 15.091C69.1957 15.091 68.7753 15.0152 68.3897 14.8635C68.0083 14.7075 67.6768 14.4822 67.3952 14.1875C67.1178 13.8885 66.9012 13.5202 66.7452 13.0825C66.5892 12.6448 66.5112 12.1422 66.5112 11.5745C66.5112 11.1152 66.5805 10.6862 66.7192 10.2875C66.8622 9.88883 67.0658 9.54433 67.3302 9.254C67.5945 8.95933 67.9173 8.72967 68.2987 8.565C68.68 8.396 69.109 8.3115 69.5857 8.3115C69.98 8.3115 70.344 8.37867 70.6777 8.513C71.0157 8.643 71.306 8.83367 71.5487 9.085C71.7957 9.332 71.9885 9.63967 72.1272 10.008C72.2658 10.372 72.3352 10.788 72.3352 11.256C72.3352 11.438 72.3157 11.5593 72.2767 11.62C72.2377 11.6807 72.164 11.711 72.0557 11.711H67.6552C67.6682 12.127 67.7245 12.4888 67.8242 12.7965C67.9282 13.1042 68.0712 13.362 68.2532 13.57C68.4352 13.7737 68.6518 13.9275 68.9032 14.0315C69.1545 14.1312 69.4362 14.181 69.7482 14.181C70.0385 14.181 70.2877 14.1485 70.4957 14.0835C70.708 14.0142 70.89 13.9405 71.0417 13.8625C71.1933 13.7845 71.319 13.713 71.4187 13.648C71.5227 13.5787 71.6115 13.544 71.6852 13.544C71.7805 13.544 71.8542 13.5808 71.9062 13.6545L72.2312 14.077ZM74.8483 9.371C74.9913 9.21067 75.143 9.0655 75.3033 8.9355C75.4637 8.8055 75.6327 8.695 75.8103 8.604C75.9923 8.50867 76.183 8.43717 76.3823 8.3895C76.586 8.3375 76.8048 8.3115 77.0388 8.3115C77.3985 8.3115 77.7148 8.37217 77.9878 8.4935C78.2652 8.6105 78.4948 8.7795 78.6768 9.0005C78.8632 9.21717 79.004 9.47933 79.0993 9.787C79.1947 10.0947 79.2423 10.4348 79.2423 10.8075V15H78.0788V10.8075C78.0788 10.3092 77.964 9.9235 77.7343 9.6505C77.509 9.37317 77.1645 9.2345 76.7008 9.2345C76.3585 9.2345 76.0378 9.31683 75.7388 9.4815C75.4442 9.64617 75.1712 9.86933 74.9198 10.151V15H73.7563V8.4155H74.4518C74.6165 8.4155 74.7183 8.49567 74.7573 8.656L74.8483 9.371ZM82.938 15.104C82.418 15.104 82.0172 14.9588 81.7355 14.6685C81.4582 14.3782 81.3195 13.96 81.3195 13.414V9.384H80.5265C80.4572 9.384 80.3987 9.3645 80.351 9.3255C80.3033 9.28217 80.2795 9.21717 80.2795 9.1305V8.669L81.3585 8.5325L81.625 6.498C81.638 6.433 81.6662 6.381 81.7095 6.342C81.7572 6.29867 81.8178 6.277 81.8915 6.277H82.4765V8.5455H84.381V9.384H82.4765V13.336C82.4765 13.6133 82.5437 13.8192 82.678 13.9535C82.8123 14.0878 82.9857 14.155 83.198 14.155C83.3193 14.155 83.4233 14.1398 83.51 14.1095C83.601 14.0748 83.679 14.038 83.744 13.999C83.809 13.96 83.8632 13.9253 83.9065 13.895C83.9542 13.8603 83.9953 13.843 84.03 13.843C84.0907 13.843 84.1448 13.8798 84.1925 13.9535L84.5305 14.506C84.3312 14.6923 84.0907 14.8397 83.809 14.948C83.5273 15.052 83.237 15.104 82.938 15.104ZM88.3131 8.3115C88.7941 8.3115 89.2274 8.39167 89.6131 8.552C89.9988 8.71233 90.3281 8.93983 90.6011 9.2345C90.8741 9.52917 91.0821 9.88667 91.2251 10.307C91.3724 10.723 91.4461 11.1888 91.4461 11.7045C91.4461 12.2245 91.3724 12.6925 91.2251 13.1085C91.0821 13.5245 90.8741 13.8798 90.6011 14.1745C90.3281 14.4692 89.9988 14.6967 89.6131 14.857C89.2274 15.013 88.7941 15.091 88.3131 15.091C87.8278 15.091 87.3901 15.013 87.0001 14.857C86.6144 14.6967 86.2851 14.4692 86.0121 14.1745C85.7391 13.8798 85.5289 13.5245 85.3816 13.1085C85.2386 12.6925 85.1671 12.2245 85.1671 11.7045C85.1671 11.1888 85.2386 10.723 85.3816 10.307C85.5289 9.88667 85.7391 9.52917 86.0121 9.2345C86.2851 8.93983 86.6144 8.71233 87.0001 8.552C87.3901 8.39167 87.8278 8.3115 88.3131 8.3115ZM88.3131 14.1875C88.9631 14.1875 89.4484 13.9708 89.7691 13.5375C90.0898 13.0998 90.2501 12.491 90.2501 11.711C90.2501 10.9267 90.0898 10.3157 89.7691 9.878C89.4484 9.44033 88.9631 9.2215 88.3131 9.2215C87.9838 9.2215 87.6956 9.27783 87.4486 9.3905C87.2059 9.50317 87.0023 9.66567 86.8376 9.878C86.6773 10.0903 86.5559 10.3525 86.4736 10.6645C86.3956 10.9722 86.3566 11.321 86.3566 11.711C86.3566 12.491 86.5169 13.0998 86.8376 13.5375C87.1626 13.9708 87.6544 14.1875 88.3131 14.1875Z" fill="#4BDE95"/>
<path d="M12.606 13.505C12.7793 13.505 12.9158 13.5548 13.0155 13.6545C13.1195 13.7498 13.1715 13.8777 13.1715 14.038V15H6.72349V14.467C6.72349 14.3587 6.74516 14.246 6.78849 14.129C6.83616 14.0077 6.90983 13.8993 7.00949 13.804L9.86299 10.944C10.1013 10.7013 10.3137 10.4695 10.5 10.2485C10.6907 10.0275 10.8488 9.80867 10.9745 9.592C11.1002 9.37533 11.1955 9.1565 11.2605 8.9355C11.3298 8.71017 11.3645 8.474 11.3645 8.227C11.3645 8.00167 11.332 7.8045 11.267 7.6355C11.202 7.46217 11.1088 7.317 10.9875 7.2C10.8705 7.083 10.7275 6.99633 10.5585 6.94C10.3938 6.87933 10.2075 6.849 9.99949 6.849C9.80883 6.849 9.63116 6.87717 9.46649 6.9335C9.30616 6.9855 9.16316 7.06133 9.03749 7.161C8.91183 7.25633 8.80566 7.369 8.71899 7.499C8.63233 7.629 8.56733 7.772 8.52399 7.928C8.45033 8.12733 8.35499 8.2595 8.23799 8.3245C8.12099 8.3895 7.95199 8.40467 7.73099 8.37L6.88599 8.2205C6.95099 7.76983 7.07666 7.3755 7.26299 7.0375C7.44933 6.69517 7.68116 6.41133 7.95849 6.186C8.24016 5.95633 8.56083 5.78517 8.92049 5.6725C9.28449 5.5555 9.67449 5.497 10.0905 5.497C10.5238 5.497 10.9203 5.562 11.28 5.692C11.6397 5.81767 11.9473 5.9975 12.203 6.2315C12.4587 6.4655 12.658 6.74717 12.801 7.0765C12.944 7.40583 13.0155 7.772 13.0155 8.175C13.0155 8.52167 12.9635 8.84233 12.8595 9.137C12.7598 9.43167 12.6233 9.71333 12.45 9.982C12.281 10.2507 12.0817 10.5107 11.852 10.762C11.6223 11.0133 11.3818 11.269 11.1305 11.529L9.01149 13.6935C9.21516 13.6328 9.41666 13.5873 9.61599 13.557C9.81966 13.5223 10.0125 13.505 10.1945 13.505H12.606Z" fill="#4BDE95"/>
</svg>
