<svg width="30" height="31" viewBox="0 0 30 31" fill="none" xmlns="http://www.w3.org/2000/svg">
<path d="M29.2264 10.8421L19.9901 1.60586C19.4925 1.10909 18.8182 0.830078 18.1151 0.830078C17.412 0.830078 16.7377 1.10909 16.2401 1.60586L1.60635 16.2459C1.10958 16.7434 0.830566 17.4178 0.830566 18.1209C0.830566 18.824 1.10958 19.4983 1.60635 19.9959L2.7451 21.1346L10.3988 28.7884H9.3401C9.17898 28.7884 9.02446 28.8524 8.91053 28.9663C8.7966 29.0802 8.7326 29.2347 8.7326 29.3959C8.7326 29.557 8.7966 29.7115 8.91053 29.8254C9.02446 29.9394 9.17898 30.0034 9.3401 30.0034H21.4926C21.6537 30.0034 21.8082 29.9394 21.9222 29.8254C22.0361 29.7115 22.1001 29.557 22.1001 29.3959C22.1001 29.2347 22.0361 29.0802 21.9222 28.9663C21.8082 28.8524 21.6537 28.7884 21.4926 28.7884H15.0288L29.2264 14.5859C29.7218 14.0889 30 13.4158 30 12.714C30 12.0122 29.7218 11.3391 29.2264 10.8421ZM28.3676 13.7271L13.7276 28.3659C13.5949 28.4988 13.4373 28.6041 13.2637 28.6757C13.0902 28.7474 12.9041 28.784 12.7163 28.7834C12.5288 28.7839 12.343 28.7472 12.1696 28.6756C11.9963 28.6039 11.8388 28.4987 11.7063 28.3659L4.0351 20.6946L18.0938 6.64086C18.153 6.58511 18.2004 6.51805 18.2332 6.44365C18.266 6.36925 18.2835 6.28902 18.2848 6.20772C18.286 6.12642 18.2709 6.04571 18.2403 5.97036C18.2098 5.89501 18.1644 5.82656 18.1069 5.76906C18.0494 5.71157 17.981 5.6662 17.9056 5.63565C17.8303 5.6051 17.7495 5.58998 17.6682 5.5912C17.5869 5.59242 17.5067 5.60994 17.4323 5.64273C17.3579 5.67553 17.2908 5.72292 17.2351 5.78211L3.17635 19.8396L2.46635 19.1296C2.19911 18.8601 2.04916 18.496 2.04916 18.1165C2.04916 17.737 2.19911 17.3728 2.46635 17.1034L17.1051 2.46586C17.3746 2.19862 17.7387 2.04867 18.1182 2.04867C18.4977 2.04867 18.8619 2.19862 19.1313 2.46586L22.4188 5.75336L8.35885 19.8121C8.25054 19.9271 8.19128 20.0798 8.19365 20.2377C8.19601 20.3957 8.25981 20.5465 8.37151 20.6582C8.48321 20.7699 8.63403 20.8337 8.79199 20.8361C8.94994 20.8384 9.1026 20.7792 9.2176 20.6709L23.2776 6.61211L28.3663 11.7009C28.635 11.9695 28.786 12.3338 28.7862 12.7137C28.7865 13.0936 28.6359 13.4581 28.3676 13.7271Z" fill="white"/>
<path d="M15.8041 18.3828C15.6902 18.269 15.5358 18.2051 15.3747 18.2051C15.2137 18.2051 15.0593 18.269 14.9454 18.3828L10.1641 23.1641C10.0501 23.2779 9.98596 23.4325 9.98584 23.5936C9.98572 23.7548 10.0496 23.9094 10.1635 24.0234C10.2774 24.1375 10.4319 24.2016 10.5931 24.2017C10.7542 24.2019 10.9088 24.138 11.0229 24.0241L15.8041 19.2428C15.8607 19.1864 15.9055 19.1194 15.9361 19.0456C15.9667 18.9718 15.9825 18.8927 15.9825 18.8128C15.9825 18.733 15.9667 18.6538 15.9361 18.5801C15.9055 18.5063 15.8607 18.4393 15.8041 18.3828Z" fill="white"/>
<path d="M13.8427 22.9199L11.8814 24.8811C11.7674 24.995 11.7032 25.1495 11.7031 25.3107C11.703 25.4719 11.7669 25.6265 11.8808 25.7405C11.9947 25.8546 12.1492 25.9187 12.3103 25.9188C12.4715 25.9189 12.6261 25.855 12.7402 25.7411L14.7014 23.7799C14.8097 23.6649 14.869 23.5122 14.8666 23.3543C14.8643 23.1963 14.8005 23.0455 14.6888 22.9338C14.5771 22.8221 14.4262 22.7583 14.2683 22.7559C14.1103 22.7536 13.9577 22.8128 13.8427 22.9211V22.9199Z" fill="white"/>
<path d="M15.6477 21.1165L15.3902 21.3739C15.331 21.4297 15.2836 21.4967 15.2508 21.5711C15.218 21.6455 15.2005 21.7258 15.1993 21.8071C15.1981 21.8884 15.2132 21.9691 15.2437 22.0445C15.2743 22.1198 15.3197 22.1882 15.3771 22.2457C15.4346 22.3032 15.5031 22.3486 15.5784 22.3792C15.6538 22.4097 15.7345 22.4248 15.8158 22.4236C15.8971 22.4224 15.9773 22.4049 16.0517 22.3721C16.1261 22.3393 16.1932 22.2919 16.2489 22.2327L16.5064 21.9752C16.6148 21.8602 16.674 21.7075 16.6716 21.5496C16.6693 21.3916 16.6055 21.2408 16.4938 21.1291C16.3821 21.0174 16.2313 20.9536 16.0733 20.9512C15.9154 20.9489 15.7627 21.0081 15.6477 21.1165Z" fill="white"/>
<path d="M24.0203 10.1641C23.9063 10.0503 23.7519 9.98633 23.5909 9.98633C23.4299 9.98633 23.2754 10.0503 23.1615 10.1641L20.584 12.7416C20.4702 12.8555 20.4062 13.0099 20.4062 13.171C20.4062 13.332 20.4702 13.4864 20.584 13.6003L22.3028 15.3191C22.4167 15.4329 22.5711 15.4968 22.7321 15.4968C22.8932 15.4968 23.0476 15.4329 23.1615 15.3191L25.739 12.7416C25.8528 12.6277 25.9167 12.4732 25.9167 12.3122C25.9167 12.1512 25.8528 11.9967 25.739 11.8828L24.0203 10.1641ZM22.7315 14.0303L21.8728 13.1716L23.5915 11.4528L24.4503 12.3116L22.7315 14.0303Z" fill="white"/>
<path d="M19.0825 5.39978C19.1623 5.40003 19.2414 5.38447 19.3152 5.35401C19.389 5.32354 19.4561 5.27877 19.5125 5.22228L19.77 4.96478C19.8839 4.85074 19.9478 4.69612 19.9477 4.53496C19.9475 4.37379 19.8834 4.21928 19.7694 4.1054C19.6553 3.99153 19.5007 3.92762 19.3396 3.92773C19.1784 3.92785 19.0239 3.99199 18.91 4.10603L18.6525 4.36353C18.5674 4.44849 18.5093 4.55681 18.4858 4.67477C18.4623 4.79273 18.4744 4.91501 18.5204 5.02612C18.5665 5.13724 18.6445 5.23218 18.7445 5.29892C18.8446 5.36566 18.9622 5.4012 19.0825 5.40103V5.39978Z" fill="white"/>
<path d="M6.94117 21.2288L6.68367 21.4863C6.56963 21.6002 6.50549 21.7547 6.50537 21.9158C6.50525 22.077 6.56917 22.2316 6.68305 22.3457C6.79693 22.4597 6.95144 22.5238 7.1126 22.524C7.27377 22.5241 7.42838 22.4602 7.54242 22.3463L7.79992 22.0888C7.8591 22.033 7.9065 21.966 7.9393 21.8916C7.97209 21.8172 7.98962 21.737 7.99083 21.6557C7.99205 21.5744 7.97693 21.4936 7.94638 21.4183C7.91583 21.3429 7.87046 21.2745 7.81296 21.217C7.75547 21.1595 7.68702 21.1141 7.61167 21.0836C7.53632 21.053 7.45561 21.0379 7.37431 21.0391C7.29301 21.0403 7.21278 21.0579 7.13838 21.0907C7.06398 21.1235 6.99692 21.1708 6.94117 21.23V21.2288Z" fill="white"/>
</svg>
