<svg width="99" height="32" viewBox="0 0 99 32" fill="none" xmlns="http://www.w3.org/2000/svg">
<path d="M98.5869 31.3464H91.1649C90.8929 30.0464 90.6019 28.7654 90.3719 27.4774C90.2719 26.9434 90.1059 26.7354 89.5089 26.7434C86.5329 26.7814 83.556 26.7724 80.58 26.7484C80.4046 26.7212 80.2257 26.7644 80.0821 26.8685C79.9384 26.9727 79.8417 27.1293 79.813 27.3044C79.403 28.5314 78.9549 29.7454 78.4959 30.9554C78.4339 31.1194 78.2269 31.3444 78.0859 31.3464C75.4039 31.3694 72.7209 31.3633 69.9609 31.3633C70.4609 30.1523 70.94 28.9953 71.424 27.8424C74.8833 19.5897 78.3429 11.3374 81.8029 3.08535C82.0541 2.29285 82.568 1.60967 83.2597 1.14861C83.9515 0.687542 84.7798 0.476157 85.6079 0.549351H92.124C92.339 1.55535 92.5559 2.54935 92.7629 3.54035C94.4649 11.6957 96.167 19.851 97.869 28.0064C98.088 29.0514 98.345 30.0873 98.585 31.1273L98.5869 31.3464ZM88.874 20.4024L86.5179 9.12735L86.4179 9.10835L82.3239 20.4014L88.874 20.4024Z" fill="white"/>
<path d="M66.255 0C67.234 0.182 68.221 0.331 69.191 0.555C70.076 0.755 70.942 1.044 71.883 1.312L70.494 7.812C69.253 7.448 68.067 7.029 66.848 6.76C65.196 6.32954 63.4631 6.31476 61.804 6.717C61.1063 6.91484 60.4586 7.25878 59.904 7.726C59.6918 7.88368 59.5185 8.08788 59.3974 8.32293C59.2763 8.55799 59.2107 8.81765 59.2056 9.082C59.2005 9.34634 59.256 9.60835 59.3679 9.84791C59.4797 10.0875 59.645 10.2982 59.851 10.464C60.4752 11.0208 61.1566 11.5099 61.884 11.923C63.508 12.899 65.213 13.749 66.791 14.792C67.7254 15.3427 68.5247 16.0955 69.1304 16.9953C69.736 17.8951 70.1326 18.919 70.291 19.992C70.5954 21.8282 70.3402 23.7135 69.5585 25.4027C68.7768 27.0919 67.5048 28.5066 65.908 29.463C63.7816 30.8024 61.3531 31.587 58.845 31.745C55.3638 32.0739 51.8522 31.6758 48.533 30.576C48.308 30.502 48.089 30.41 47.87 30.32C47.7925 30.2797 47.718 30.2339 47.647 30.183L49.084 23.454C49.656 23.704 50.193 23.954 50.742 24.175C53.2979 25.2961 56.1251 25.6484 58.878 25.189C59.6269 25.0388 60.3385 24.7417 60.972 24.315C61.2825 24.1321 61.5437 23.8763 61.733 23.5698C61.9224 23.2632 62.0341 22.9151 62.0587 22.5556C62.0832 22.1962 62.0197 21.8361 61.8737 21.5067C61.7278 21.1772 61.5037 20.8883 61.221 20.665C60.3758 20.0038 59.4778 19.4132 58.536 18.899C57.106 18.028 55.586 17.285 54.236 16.31C53.3575 15.7402 52.6135 14.986 52.0558 14.0997C51.498 13.2135 51.1398 12.2165 51.006 11.178C50.8132 9.64635 51.0278 8.09093 51.6283 6.66876C52.2288 5.24658 53.1938 4.00799 54.426 3.078C56.6326 1.36701 59.2898 0.335692 62.073 0.110001C62.2286 0.0827222 62.3826 0.046325 62.534 0.000999451L66.255 0Z" fill="white"/>
<path d="M37.3941 0.574584C36.9771 1.57458 36.5821 2.53458 36.1821 3.48858C32.3627 12.6006 28.5457 21.7139 24.7311 30.8286C24.6816 31.007 24.5683 31.1611 24.4127 31.2616C24.2571 31.362 24.0701 31.4019 23.8871 31.3736C21.4761 31.3536 19.0651 31.3456 16.6551 31.3786C16.1441 31.3856 15.9771 31.2066 15.8551 30.7476C13.8111 22.7836 11.7331 14.8276 9.71307 6.85658C9.58147 6.17805 9.28445 5.54248 8.84835 5.00625C8.41224 4.47002 7.85055 4.0497 7.21307 3.78258C4.9828 2.82936 2.67022 2.0816 0.304073 1.54859C0.204073 1.52359 0.0960703 1.49658 -0.00292969 1.47158C0.00907031 0.547584 0.00907296 0.547584 0.888073 0.547584C5.10674 0.547584 9.32574 0.547584 13.5451 0.547584C14.4598 0.500098 15.3592 0.796294 16.0668 1.37801C16.7743 1.95972 17.2388 2.78493 17.3691 3.69158C18.4404 9.29892 19.4994 14.9086 20.5461 20.5206C20.5921 20.7656 20.6461 21.0096 20.7151 21.3556C20.8241 21.1496 20.9011 21.0346 20.9511 20.9086C23.5717 14.2806 26.1881 7.65092 28.8001 1.01958C28.8371 0.865419 28.9302 0.730595 29.0613 0.64146C29.1925 0.552324 29.3521 0.515285 29.5091 0.537584C31.9561 0.556584 34.4041 0.546585 36.8511 0.548585C37.0121 0.550585 37.1701 0.563584 37.3941 0.574584Z" fill="white"/>
<path d="M34.1992 31.3621L40.7862 0.580078H48.7802C48.4472 2.14208 48.1222 3.67308 47.7942 5.20508C45.9829 13.6717 44.1762 22.1417 42.3742 30.6151C42.2502 31.2041 42.0412 31.3911 41.4302 31.3791C39.2392 31.3371 37.0472 31.3621 34.8562 31.3621H34.1992Z" fill="white"/>
</svg>
